<?xml version="1.0" encoding="utf-8"?>
<!-- Generator: Adobe Illustrator 21.0.0, SVG Export Plug-In . SVG Version: 6.00 Build 0)  -->
<svg version="1.1" xmlns="http://www.w3.org/2000/svg" xmlns:xlink="http://www.w3.org/1999/xlink" x="0px" y="0px"
	 viewBox="0 0 300 372" style="enable-background:new 0 0 300 372;" xml:space="preserve">
<style type="text/css">
	.st0{display:none;fill:#095270;}
	.st1{fill:#095270;}
	.st2{fill:#FFFFFF;}
	.st3{fill:#3D8AAB;}
	.st4{fill:#7FCDEE;}
	.st5{display:none;}
	.st6{fill:#808080;}
	.st7{display:inline;fill:#333333;}
	.st8{display:inline;fill:#808080;}
	.st9{display:inline;}
	.st10{fill:#333333;}
	.st11{display:inline;fill:#E6E6E6;}
	.st12{fill:#E6E6E6;}
	.st13{fill:#B3B3B3;}
	.st14{display:inline;fill:#095270;}
	.st15{display:inline;fill:#3D8AAB;}
	.st16{display:inline;fill:#7FCDEE;}
</style>
<g id="color">
	<g>
		<g>
			<polygon class="st0" points="298.2,142.5 235.6,36.9 148.6,7.8 62.3,36.9 0,142.5 144.2,293.3 			"/>
			<polygon class="st1" points="298.2,142.5 235.6,36.9 148.6,7.8 62.3,36.9 0,142.5 149.2,288.4 			"/>
			<polygon class="st2" points="95.1,72.1 120.7,85.2 109.3,92.9 			"/>
			<polygon class="st2" points="203.1,72.1 177.5,85.2 188.9,92.9 			"/>
			<polygon class="st3" points="90.7,6.2 61.4,0.6 45.2,10.8 37.9,38.7 96.3,17.6 			"/>
			<polygon class="st3" points="253,10.8 236.8,0.6 207.5,6.2 201.8,17.6 260.2,38.7 			"/>
			<g>
				<polygon class="st3" points="148.8,7.6 62.3,36.7 129.1,82.5 169.3,82.5 235.7,36.7 				"/>
			</g>
			<path class="st4" d="M172.8,88.8h-47.4l-17.6,30.4l41.3,30.3l41.3-30.3L172.8,88.8z M129,82.5l20.1-34.6l20.1,34.6H129z
				 M184.5,151.6l17.1,29.2l-14,0.8L184.5,151.6z M255.4,179.9l-49.7,3l9.8,16.7L255.4,179.9z M167.2,210.3l21.3,2l-2.9-28.2
				l-15.3,0.9L167.2,210.3z M203,183.1l-15.1,0.9l2.9,27.8l22.5-11.1L203,183.1z M204.3,180.6l52.7-3.2l-71.5-28.8L204.3,180.6z
				 M188.9,216.6l-32.8,40.5l35.8-12.1L188.9,216.6z M155.4,254.2l32.1-39.6l-21.1-2L155.4,254.2z M193,120.7l3.2,8.5l6.3-11.3
				L193,120.7z M238.2,94.4l17.8-11.3l-32.7,6L238.2,94.4z M260.7,83L241,95.5l19.8,7.1L260.7,83z M253.6,173.5L216,146.1l-27.6,1.1
				L253.6,173.5z M214.6,202.7l-20.5,10.1l27.9,2.6L214.6,202.7z M261,144.2l-41.2,1.7l41.4,30.1L261,144.2z M260.8,111l0-5.9
				l-22.3-8L209,115.8L260.8,111z M260.9,113.3l-49.7,4.6l49.8,12.7L260.9,113.3z M261,141.9l0-8.7l-56.2-14.3l-6.4,11.5l18.4,13.4
				L261,141.9z M182.4,145.1C182.4,145.1,182.4,145.1,182.4,145.1C182.4,145.1,182.4,145.1,182.4,145.1L182.4,145.1
				C182.4,145.1,182.4,145.1,182.4,145.1c0.1,0,0.2,0,0.2-0.1h0c0,0,0,0,0,0h0c0,0,0,0,0,0c0,0,0,0,0.1,0l30.2-1.2l-16.8-12.2
				c-0.2-0.2-0.4-0.4-0.5-0.7l-18.2,3.7l4.8,10.6C182.3,145.2,182.4,145.1,182.4,145.1z M169.1,182.7l16.2-1l-3.7-35l-30.1,14.3
				l16.8,22C168.6,182.9,168.8,182.7,169.1,182.7z M164.7,210.4l3.2-25.9l-45.2,15.2l41.7,11.2C164.4,210.7,164.6,210.6,164.7,210.4
				z M235.6,96.1l-17.3-6.2c-0.4-0.1-0.7-0.5-0.8-0.8l-24.9,6.2l11,21.1L235.6,96.1z M191.1,214.9l3.1,29.5l-3.5,3.5l-36.9,12.5
				l-4.6,28.1l72.2-70.7L191.1,214.9z M218.5,87.6l39.2-7.2l-27.2-11.7c-0.4-0.2-0.7-0.5-0.7-0.9L209,70.6l9.2,17.2
				C218.3,87.7,218.4,87.6,218.5,87.6z M260.9,179.1l-1.5,1.4l-42.7,21.1l7.7,13.2l-1.2,1.2L260.9,179.1z M151.3,260.3l-19,11.6
				l14.9,14.5L151.3,260.3z M151.8,258.7l12.1-45.8L129,238.1L151.8,258.7L151.8,258.7z M263.2,110.7l10.7-1l-10.7-3.8L263.2,110.7z
				 M234.3,38.1l-22.4,21.1l18,8L234.3,38.1z M297.2,140.5L280,111.4c-0.1,0.1-0.3,0.2-0.5,0.2l-16.3,1.5l0.1,18.1l33.4,8.5
				L297.2,140.5z M290.5,140.6l-27.1-6.9l0,8L290.5,140.6z M232.4,66.9l28.5,12.2l1.6,2.7l-26.7-45.1l1,1.6L232.4,66.9z
				 M297.6,141.2c-0.4,0.5-0.7,1.1-1.1,1.6l-33.1,1.4l0.2,32.4l34.8-34L297.6,141.2z M263.2,103.4l15.2,5.5l-15.4-25.9L263.2,103.4z
				"/>
			<polygon class="st1" points="149.1,118.9 126.9,105 133.6,93.5 149.1,93.5 164.6,93.5 171.3,105 			"/>
			<path class="st3" d="M232.7,64.4c-2.6-0.6-4.8,2-3.6,4.6c0.3,0.6,0.8,1.1,1.3,1.3c2.6,1.2,5.2-1,4.6-3.6
				C234.7,65.5,233.8,64.6,232.7,64.4z M235.5,33.6c-1.8,0-3.2,1.4-3.2,3.2c0,1.8,1.4,3.2,3.2,3.2s3.2-1.4,3.2-3.2
				C238.7,35,237.2,33.6,235.5,33.6z M261.2,83.7c1.8,0,3.2-1.4,3.2-3.2s-1.4-3.2-3.2-3.2c-1.8,0-3.2,1.4-3.2,3.2
				S259.4,83.7,261.2,83.7z M296.8,138.8c-1.8,0-3.2,1.4-3.2,3.2c0,1.8,1.4,3.2,3.2,3.2c1.8,0,3.2-1.4,3.2-3.2
				C300,140.2,298.6,138.8,296.8,138.8z M278.4,107.4c-1.8,0-3.2,1.4-3.2,3.2c0,1.8,1.4,3.2,3.2,3.2c1.8,0,3.2-1.4,3.2-3.2
				C281.5,108.8,280.1,107.4,278.4,107.4z M261.2,174.1c-1.8,0-3.2,1.4-3.2,3.2c0,1.8,1.4,3.2,3.2,3.2c1.8,0,3.2-1.4,3.2-3.2
				C264.4,175.6,263,174.1,261.2,174.1z M192.9,213.6c0-1.8-1.4-3.2-3.2-3.2c-1.8,0-3.2,1.4-3.2,3.2c0,1.8,1.4,3.2,3.2,3.2
				C191.4,216.8,192.9,215.4,192.9,213.6z M221.5,88.8c0-1.8-1.4-3.2-3.2-3.2s-3.2,1.4-3.2,3.2c0,1.8,1.4,3.2,3.2,3.2
				S221.5,90.5,221.5,88.8z M204.2,114.3c-1.8,0-3.2,1.4-3.2,3.2c0,1.8,1.4,3.2,3.2,3.2s3.2-1.4,3.2-3.2
				C207.3,115.7,205.9,114.3,204.2,114.3z M196.8,127.3c-1.8,0-3.2,1.4-3.2,3.2s1.4,3.2,3.2,3.2c1.8,0,3.2-1.4,3.2-3.2
				S198.6,127.3,196.8,127.3z M182.9,143.2c-1.8,0-3.2,1.4-3.2,3.2s1.4,3.2,3.2,3.2s3.2-1.4,3.2-3.2S184.6,143.2,182.9,143.2z
				 M169.2,180.7c-1.8,0-3.2,1.4-3.2,3.2c0,1.8,1.4,3.2,3.2,3.2s3.2-1.4,3.2-3.2C172.4,182.2,170.9,180.7,169.2,180.7z M165.4,208.2
				c-1.8,0-3.2,1.4-3.2,3.2c0,1.8,1.4,3.2,3.2,3.2c1.8,0,3.2-1.4,3.2-3.2C168.6,209.6,167.2,208.2,165.4,208.2z M152.8,256.1
				c-1.8,0-3.2,1.4-3.2,3.2c0,1.8,1.4,3.2,3.2,3.2s3.2-1.4,3.2-3.2C156,257.5,154.6,256.1,152.8,256.1z M192.9,242.2
				c-1.8,0-3.2,1.4-3.2,3.2s1.4,3.2,3.2,3.2c1.8,0,3.2-1.4,3.2-3.2S194.6,242.2,192.9,242.2z M149.7,284.5c-2.2-0.4-4.2,1.5-3.7,3.7
				c0.2,1.2,1.3,2.3,2.5,2.5c2.2,0.4,4.2-1.5,3.7-3.7C152,285.7,151,284.7,149.7,284.5z M223.2,213.6c-1.8,0-3.2,1.4-3.2,3.2
				s1.4,3.2,3.2,3.2c1.8,0,3.2-1.4,3.2-3.2S225,213.6,223.2,213.6z"/>
		</g>
		<g>
			<path class="st1" d="M32.9,358.9c-0.4,3.9-1.8,7-4.4,9.2s-5.9,3.3-10.1,3.3c-2.9,0-5.5-0.7-7.8-2.1s-4-3.4-5.2-6s-1.9-5.6-1.9-9
				V351c0-3.5,0.6-6.6,1.9-9.2s3-4.7,5.3-6.1s5-2.2,8-2.2c4.1,0,7.4,1.1,9.9,3.3s3.9,5.3,4.3,9.4h-6.4c-0.3-2.7-1.1-4.6-2.3-5.8
				s-3.1-1.8-5.5-1.8c-2.8,0-4.9,1-6.4,3.1c-1.5,2-2.3,5-2.3,9v3.3c0,4,0.7,7,2.1,9.1c1.4,2.1,3.5,3.2,6.3,3.2
				c2.5,0,4.4-0.6,5.7-1.7s2.1-3,2.4-5.7H32.9z"/>
			<path class="st1" d="M52.1,356.7h-7.2v14.2h-6.4v-37h13c4.3,0,7.6,1,9.9,2.9c2.3,1.9,3.5,4.7,3.5,8.3c0,2.5-0.6,4.5-1.8,6.2
				s-2.9,3-5,3.8l8.3,15.4v0.3h-6.9L52.1,356.7z M44.9,351.5h6.6c2.2,0,3.9-0.5,5.1-1.6s1.8-2.6,1.8-4.5c0-2-0.6-3.5-1.7-4.6
				s-2.8-1.6-5-1.7h-6.8V351.5z"/>
			<path class="st1" d="M82,351.5l8.5-17.5h7.1l-12.4,23.4v13.6h-6.4v-13.6L66.4,334h7.1L82,351.5z"/>
			<path class="st1" d="M108.3,357.2v13.7h-6.4v-37H116c4.1,0,7.4,1.1,9.8,3.2s3.6,5,3.6,8.5c0,3.6-1.2,6.4-3.6,8.5s-5.7,3-10,3
				H108.3z M108.3,352h7.7c2.3,0,4-0.5,5.2-1.6s1.8-2.6,1.8-4.7c0-2-0.6-3.6-1.8-4.8s-2.9-1.8-5-1.8h-7.9V352z"/>
			<path class="st1" d="M161.7,339.1h-11.5v31.8h-6.4v-31.8h-11.4V334h29.3V339.1z"/>
			<path class="st1" d="M193.7,334v24.7c0,3.9-1.3,7-3.8,9.3s-5.9,3.4-10,3.4c-4.2,0-7.6-1.1-10.1-3.4s-3.7-5.4-3.7-9.4V334h6.4
				v24.7c0,2.5,0.6,4.4,1.9,5.7s3.1,2,5.5,2c4.9,0,7.4-2.6,7.4-7.8V334H193.7z"/>
			<path class="st1" d="M229.9,353.4c0,3.6-0.6,6.8-1.9,9.5s-3,4.8-5.4,6.3s-5,2.2-8,2.2c-3,0-5.7-0.7-8-2.2s-4.2-3.6-5.4-6.3
				s-1.9-5.8-1.9-9.4v-2.1c0-3.6,0.6-6.8,1.9-9.5s3.1-4.9,5.4-6.3s5-2.2,8-2.2s5.7,0.7,8,2.2s4.1,3.5,5.4,6.2s1.9,5.9,1.9,9.5V353.4
				z M223.5,351.5c0-4.1-0.8-7.2-2.3-9.4s-3.7-3.3-6.6-3.3c-2.8,0-4.9,1.1-6.5,3.3s-2.4,5.3-2.4,9.2v2.1c0,4.1,0.8,7.2,2.4,9.4
				s3.8,3.3,6.6,3.3c2.8,0,5-1.1,6.6-3.2s2.3-5.3,2.3-9.5V351.5z"/>
			<path class="st1" d="M255.2,361.4c0-1.6-0.6-2.9-1.7-3.8s-3.2-1.8-6.2-2.7s-5.3-1.9-7.1-3c-3.4-2.1-5.1-4.9-5.1-8.3
				c0-3,1.2-5.4,3.6-7.4s5.6-2.9,9.5-2.9c2.6,0,4.9,0.5,6.9,1.4s3.6,2.3,4.7,4s1.7,3.7,1.7,5.8h-6.4c0-1.9-0.6-3.4-1.8-4.5
				s-2.9-1.6-5.2-1.6c-2.1,0-3.7,0.4-4.9,1.3s-1.7,2.1-1.7,3.8c0,1.4,0.6,2.5,1.9,3.4s3.3,1.8,6.2,2.6s5.2,1.8,6.9,2.9
				s3,2.3,3.8,3.8s1.2,3.1,1.2,5c0,3.1-1.2,5.5-3.5,7.4s-5.6,2.7-9.6,2.7c-2.7,0-5.1-0.5-7.4-1.5s-4-2.4-5.2-4.1s-1.9-3.8-1.9-6.1
				h6.4c0,2.1,0.7,3.7,2.1,4.9s3.4,1.7,6,1.7c2.2,0,3.9-0.5,5-1.4S255.2,362.9,255.2,361.4z"/>
			<path class="st1" d="M296.5,353.4c0,3.6-0.6,6.8-1.9,9.5s-3,4.8-5.4,6.3s-5,2.2-8,2.2c-3,0-5.7-0.7-8-2.2s-4.2-3.6-5.4-6.3
				s-1.9-5.8-1.9-9.4v-2.1c0-3.6,0.6-6.8,1.9-9.5s3.1-4.9,5.4-6.3s5-2.2,8-2.2s5.7,0.7,8,2.2s4.1,3.5,5.4,6.2s1.9,5.9,1.9,9.5V353.4
				z M290.1,351.5c0-4.1-0.8-7.2-2.3-9.4s-3.7-3.3-6.6-3.3c-2.8,0-4.9,1.1-6.5,3.3s-2.4,5.3-2.4,9.2v2.1c0,4.1,0.8,7.2,2.4,9.4
				s3.8,3.3,6.6,3.3c2.8,0,5-1.1,6.6-3.2s2.3-5.3,2.3-9.5V351.5z"/>
		</g>
	</g>
</g>
<g id="black" class="st5">
	<g>
		<path class="st6" d="M158.5,320.9c-0.4,3.9-1.8,7-4.4,9.2s-5.9,3.3-10.1,3.3c-2.9,0-5.5-0.7-7.8-2.1s-4-3.4-5.2-6s-1.9-5.6-1.9-9
			V313c0-3.5,0.6-6.6,1.9-9.2s3-4.7,5.3-6.1s5-2.2,8-2.2c4.1,0,7.4,1.1,9.9,3.3s3.9,5.3,4.3,9.4h-6.4c-0.3-2.7-1.1-4.6-2.3-5.8
			s-3.1-1.8-5.5-1.8c-2.8,0-4.9,1-6.4,3.1c-1.5,2-2.3,5-2.3,9v3.3c0,4,0.7,7,2.1,9.1c1.4,2.1,3.5,3.2,6.3,3.2c2.5,0,4.4-0.6,5.7-1.7
			s2.1-3,2.4-5.7H158.5z"/>
	</g>
	<g>
		<path class="st7" d="M-34.7,318.5c-0.6,6.2-2.9,11.1-6.9,14.6c-4,3.5-9.3,5.2-16,5.2c-4.7,0-8.7-1.1-12.3-3.3
			c-3.5-2.2-6.3-5.3-8.2-9.4s-2.9-8.8-3-14.2V306c0-5.5,1-10.4,2.9-14.6c2-4.2,4.8-7.4,8.4-9.7c3.6-2.3,7.9-3.4,12.7-3.4
			c6.4,0,11.6,1.7,15.6,5.2c3.9,3.5,6.2,8.4,6.9,14.8h-10.1c-0.5-4.2-1.7-7.2-3.7-9.1c-2-1.9-4.8-2.8-8.6-2.8
			c-4.4,0-7.8,1.6-10.2,4.8c-2.4,3.2-3.6,8-3.6,14.2v5.2c0,6.3,1.1,11.1,3.4,14.5c2.3,3.3,5.6,5,9.9,5c4,0,7-0.9,9-2.7
			c2-1.8,3.3-4.8,3.8-8.9H-34.7z"/>
		<path class="st7" d="M-4.4,315.1h-11.3v22.5h-10.1v-58.4h20.5c6.7,0,11.9,1.5,15.6,4.5c3.7,3,5.5,7.4,5.5,13.1
			c0,3.9-0.9,7.2-2.8,9.8s-4.5,4.7-7.9,6.1L18.2,337v0.5H7.3L-4.4,315.1z M-15.7,306.9h10.4c3.4,0,6.1-0.9,8-2.6
			c1.9-1.7,2.9-4.1,2.9-7.1c0-3.1-0.9-5.5-2.7-7.3c-1.8-1.7-4.4-2.6-8-2.6h-10.7V306.9z"/>
		<path class="st7" d="M43,306.8l13.4-27.7h11.2L48,316v21.5H37.9V316l-19.6-36.9h11.3L43,306.8z"/>
		<path class="st7" d="M84.4,315.9v21.7H74.3v-58.4h22.3c6.5,0,11.7,1.7,15.5,5.1c3.8,3.4,5.8,7.9,5.8,13.5c0,5.7-1.9,10.2-5.6,13.4
			c-3.8,3.2-9,4.8-15.8,4.8H84.4z M84.4,307.7h12.2c3.6,0,6.4-0.8,8.3-2.5c1.9-1.7,2.8-4.2,2.8-7.4c0-3.2-1-5.7-2.9-7.6
			c-1.9-1.9-4.6-2.9-7.9-2.9H84.4V307.7z"/>
		<path class="st8" d="M166.9,287.3h-18.2v50.2h-10.1v-50.2h-18v-8.2h46.3V287.3z"/>
		<path class="st7" d="M217.3,279.2v39c0,6.2-2,11.1-6,14.7c-4,3.6-9.3,5.4-15.9,5.4c-6.7,0-12-1.8-15.9-5.4s-5.9-8.5-5.9-14.9v-39
			h10.1v39.1c0,3.9,1,6.9,3,8.9c2,2.1,4.9,3.1,8.7,3.1c7.8,0,11.7-4.1,11.7-12.4v-38.7H217.3z"/>
		<path class="st7" d="M274.6,309.9c0,5.7-1,10.7-3,15.1s-4.8,7.6-8.5,9.9c-3.7,2.3-7.9,3.5-12.7,3.5c-4.7,0-9-1.2-12.7-3.5
			c-3.7-2.3-6.6-5.6-8.6-9.9c-2-4.3-3-9.2-3.1-14.8v-3.3c0-5.7,1-10.7,3-15.1c2-4.4,4.9-7.7,8.5-10c3.7-2.3,7.9-3.5,12.7-3.5
			c4.8,0,9,1.1,12.7,3.4c3.7,2.3,6.5,5.6,8.5,9.9c2,4.3,3,9.3,3,15V309.9z M264.4,306.8c0-6.5-1.2-11.4-3.7-14.9
			c-2.4-3.4-5.9-5.2-10.4-5.2c-4.4,0-7.8,1.7-10.3,5.2c-2.5,3.4-3.7,8.3-3.8,14.6v3.4c0,6.4,1.2,11.4,3.8,14.9
			c2.5,3.5,6,5.3,10.4,5.3c4.5,0,7.9-1.7,10.4-5.1c2.4-3.4,3.6-8.4,3.6-15V306.8z"/>
		<path class="st7" d="M314.6,322.5c0-2.6-0.9-4.5-2.7-5.9c-1.8-1.4-5.1-2.8-9.8-4.2s-8.4-3-11.2-4.7c-5.3-3.3-8-7.7-8-13.1
			c0-4.7,1.9-8.6,5.8-11.6c3.8-3,8.8-4.6,14.9-4.6c4.1,0,7.7,0.7,10.9,2.2s5.7,3.6,7.5,6.4c1.8,2.8,2.7,5.8,2.7,9.2h-10.1
			c0-3-1-5.4-2.9-7.2s-4.6-2.6-8.2-2.6c-3.3,0-5.9,0.7-7.7,2.1c-1.8,1.4-2.7,3.4-2.7,5.9c0,2.1,1,3.9,3,5.4s5.2,2.8,9.8,4.2
			c4.5,1.3,8.2,2.9,10.9,4.6c2.8,1.7,4.8,3.7,6.1,5.9c1.3,2.2,1.9,4.8,1.9,7.8c0,4.9-1.9,8.7-5.6,11.6s-8.8,4.3-15.2,4.3
			c-4.2,0-8.1-0.8-11.7-2.3s-6.3-3.7-8.3-6.5c-2-2.8-2.9-6-2.9-9.6h10.1c0,3.3,1.1,5.9,3.3,7.7c2.2,1.8,5.3,2.7,9.4,2.7
			c3.5,0,6.2-0.7,8-2.1S314.6,324.9,314.6,322.5z"/>
		<path class="st7" d="M379.7,309.9c0,5.7-1,10.7-3,15.1s-4.8,7.6-8.5,9.9c-3.7,2.3-7.9,3.5-12.7,3.5c-4.7,0-9-1.2-12.7-3.5
			c-3.7-2.3-6.6-5.6-8.6-9.9c-2-4.3-3-9.2-3.1-14.8v-3.3c0-5.7,1-10.7,3-15.1c2-4.4,4.9-7.7,8.5-10s7.9-3.5,12.7-3.5s9,1.1,12.7,3.4
			c3.7,2.3,6.5,5.6,8.5,9.9c2,4.3,3,9.3,3,15V309.9z M369.6,306.8c0-6.5-1.2-11.4-3.7-14.9c-2.4-3.4-5.9-5.2-10.4-5.2
			c-4.4,0-7.8,1.7-10.3,5.2c-2.5,3.4-3.7,8.3-3.8,14.6v3.4c0,6.4,1.2,11.4,3.8,14.9c2.5,3.5,6,5.3,10.4,5.3c4.5,0,7.9-1.7,10.4-5.1
			c2.4-3.4,3.6-8.4,3.6-15V306.8z"/>
	</g>
	<g class="st9">
		<g>
			<path class="st10" d="M32.9,358.9c-0.4,3.9-1.8,7-4.4,9.2s-5.9,3.3-10.1,3.3c-2.9,0-5.5-0.7-7.8-2.1s-4-3.4-5.2-6s-1.9-5.6-1.9-9
				V351c0-3.5,0.6-6.6,1.9-9.2s3-4.7,5.3-6.1s5-2.2,8-2.2c4.1,0,7.4,1.1,9.9,3.3s3.9,5.3,4.3,9.4h-6.4c-0.3-2.7-1.1-4.6-2.3-5.8
				s-3.1-1.8-5.5-1.8c-2.8,0-4.9,1-6.4,3.1c-1.5,2-2.3,5-2.3,9v3.3c0,4,0.7,7,2.1,9.1c1.4,2.1,3.5,3.2,6.3,3.2
				c2.5,0,4.4-0.6,5.7-1.7s2.1-3,2.4-5.7H32.9z"/>
			<path class="st10" d="M52.1,356.7h-7.2v14.2h-6.4v-37h13c4.3,0,7.6,1,9.9,2.9c2.3,1.9,3.5,4.7,3.5,8.3c0,2.5-0.6,4.5-1.8,6.2
				s-2.9,3-5,3.8l8.3,15.4v0.3h-6.9L52.1,356.7z M44.9,351.5h6.6c2.2,0,3.9-0.5,5.1-1.6s1.8-2.6,1.8-4.5c0-2-0.6-3.5-1.7-4.6
				s-2.8-1.6-5-1.7h-6.8V351.5z"/>
			<path class="st10" d="M82,351.5l8.5-17.5h7.1l-12.4,23.4v13.6h-6.4v-13.6L66.4,334h7.1L82,351.5z"/>
			<path class="st10" d="M108.3,357.2v13.7h-6.4v-37H116c4.1,0,7.4,1.1,9.8,3.2s3.6,5,3.6,8.5c0,3.6-1.2,6.4-3.6,8.5s-5.7,3-10,3
				H108.3z M108.3,352h7.7c2.3,0,4-0.5,5.2-1.6s1.8-2.6,1.8-4.7c0-2-0.6-3.6-1.8-4.8s-2.9-1.8-5-1.8h-7.9V352z"/>
			<path class="st10" d="M161.7,339.1h-11.5v31.8h-6.4v-31.8h-11.4V334h29.3V339.1z"/>
			<path class="st10" d="M193.7,334v24.7c0,3.9-1.3,7-3.8,9.3s-5.9,3.4-10,3.4c-4.2,0-7.6-1.1-10.1-3.4s-3.7-5.4-3.7-9.4V334h6.4
				v24.7c0,2.5,0.6,4.4,1.9,5.7s3.1,2,5.5,2c4.9,0,7.4-2.6,7.4-7.8V334H193.7z"/>
			<path class="st10" d="M229.9,353.4c0,3.6-0.6,6.8-1.9,9.5s-3,4.8-5.4,6.3s-5,2.2-8,2.2c-3,0-5.7-0.7-8-2.2s-4.2-3.6-5.4-6.3
				s-1.9-5.8-1.9-9.4v-2.1c0-3.6,0.6-6.8,1.9-9.5s3.1-4.9,5.4-6.3s5-2.2,8-2.2s5.7,0.7,8,2.2s4.1,3.5,5.4,6.2s1.9,5.9,1.9,9.5V353.4
				z M223.5,351.5c0-4.1-0.8-7.2-2.3-9.4s-3.7-3.3-6.6-3.3c-2.8,0-4.9,1.1-6.5,3.3s-2.4,5.3-2.4,9.2v2.1c0,4.1,0.8,7.2,2.4,9.4
				s3.8,3.3,6.6,3.3c2.8,0,5-1.1,6.6-3.2s2.3-5.3,2.3-9.5V351.5z"/>
			<path class="st10" d="M255.2,361.4c0-1.6-0.6-2.9-1.7-3.8s-3.2-1.8-6.2-2.7s-5.3-1.9-7.1-3c-3.4-2.1-5.1-4.9-5.1-8.3
				c0-3,1.2-5.4,3.6-7.4s5.6-2.9,9.5-2.9c2.6,0,4.9,0.5,6.9,1.4s3.6,2.3,4.7,4s1.7,3.7,1.7,5.8h-6.4c0-1.9-0.6-3.4-1.8-4.5
				s-2.9-1.6-5.2-1.6c-2.1,0-3.7,0.4-4.9,1.3s-1.7,2.1-1.7,3.8c0,1.4,0.6,2.5,1.9,3.4s3.3,1.8,6.2,2.6s5.2,1.8,6.9,2.9
				s3,2.3,3.8,3.8s1.2,3.1,1.2,5c0,3.1-1.2,5.5-3.5,7.4s-5.6,2.7-9.6,2.7c-2.7,0-5.1-0.5-7.4-1.5s-4-2.4-5.2-4.1s-1.9-3.8-1.9-6.1
				h6.4c0,2.1,0.7,3.7,2.1,4.9s3.4,1.7,6,1.7c2.2,0,3.9-0.5,5-1.4S255.2,362.9,255.2,361.4z"/>
			<path class="st10" d="M296.5,353.4c0,3.6-0.6,6.8-1.9,9.5s-3,4.8-5.4,6.3s-5,2.2-8,2.2c-3,0-5.7-0.7-8-2.2s-4.2-3.6-5.4-6.3
				s-1.9-5.8-1.9-9.4v-2.1c0-3.6,0.6-6.8,1.9-9.5s3.1-4.9,5.4-6.3s5-2.2,8-2.2s5.7,0.7,8,2.2s4.1,3.5,5.4,6.2s1.9,5.9,1.9,9.5V353.4
				z M290.1,351.5c0-4.1-0.8-7.2-2.3-9.4s-3.7-3.3-6.6-3.3c-2.8,0-4.9,1.1-6.5,3.3s-2.4,5.3-2.4,9.2v2.1c0,4.1,0.8,7.2,2.4,9.4
				s3.8,3.3,6.6,3.3c2.8,0,5-1.1,6.6-3.2s2.3-5.3,2.3-9.5V351.5z"/>
		</g>
		<g>
			<polygon class="st10" points="298,142.5 235.5,36.9 148.5,7.8 62.3,36.9 0,142.5 149.1,288.4 			"/>
			<path class="st6" d="M95.1,72.1l25.6,13.1l-11.4,7.6L95.1,72.1z M203,72.1l-25.6,13.1l11.4,7.6L203,72.1z M90.7,6.2L61.3,0.6
				L45.1,10.8l-7.2,27.9l58.4-21.1L90.7,6.2z M253,10.8L236.7,0.6l-29.3,5.6l-5.6,11.4l58.4,21.1L253,10.8z M148.8,7.6L62.3,36.7
				l66.8,45.8h40.1l66.5-45.8L148.8,7.6z"/>
			<path class="st2" d="M172.7,88.8h-47.4l-17.6,30.4l41.3,30.3l41.3-30.3L172.7,88.8z M129,82.5L149,47.9l20.1,34.6H129z
				 M184.5,151.6l17.1,29.2l-14,0.8L184.5,151.6z M255.4,179.9l-49.7,3l9.8,16.7L255.4,179.9z M167.1,210.3l21.3,2l-2.9-28.2
				l-15.3,0.9L167.1,210.3z M203,183.1l-15.1,0.9l2.9,27.8l22.5-11.1L203,183.1z M204.3,180.6l52.7-3.2l-71.5-28.8L204.3,180.6z
				 M188.9,216.6l-32.8,40.5l35.8-12.1L188.9,216.6z M155.4,254.2l32.1-39.6l-21.1-2L155.4,254.2z M193,120.7l3.2,8.5l6.3-11.3
				L193,120.7z M238.2,94.4L256,83.1l-32.7,6L238.2,94.4z M260.6,83L241,95.5l19.8,7.1L260.6,83z M253.5,173.5l-37.6-27.4l-27.6,1.1
				L253.5,173.5z M214.5,202.7l-20.5,10.1l27.9,2.6L214.5,202.7z M261,144.2l-41.2,1.7l41.4,30.1L261,144.2z M260.8,111l0-5.9
				l-22.3-8L209,115.8L260.8,111z M260.8,113.3l-49.7,4.6l49.8,12.7L260.8,113.3z M261,141.9l0-8.7l-56.2-14.3l-6.4,11.5l18.4,13.4
				L261,141.9z M182.4,145.1C182.4,145.1,182.4,145.1,182.4,145.1C182.4,145.1,182.4,145.1,182.4,145.1L182.4,145.1
				C182.4,145.1,182.4,145.1,182.4,145.1c0.1,0,0.2,0,0.2-0.1h0c0,0,0,0,0,0h0c0,0,0,0,0,0c0,0,0,0,0.1,0l30.2-1.2L196,131.6
				c-0.2-0.2-0.4-0.4-0.5-0.7l-18.2,3.7l4.8,10.6C182.3,145.2,182.3,145.1,182.4,145.1z M169.1,182.7l16.2-1l-3.7-35l-30.1,14.3
				l16.8,22C168.5,182.9,168.8,182.7,169.1,182.7z M164.7,210.4l3.2-25.9l-45.2,15.2l41.7,11.2C164.4,210.7,164.5,210.6,164.7,210.4
				z M235.6,96.1l-17.3-6.2c-0.4-0.1-0.7-0.5-0.8-0.8l-24.9,6.2l11,21.1L235.6,96.1z M191.1,214.9l3.1,29.5l-3.5,3.5l-36.9,12.5
				l-4.6,28.1l72.2-70.7L191.1,214.9z M218.5,87.6l39.2-7.2l-27.2-11.7c-0.4-0.2-0.7-0.5-0.7-0.9l-20.9,2.8l9.2,17.2
				C218.3,87.7,218.4,87.6,218.5,87.6z M260.9,179.1l-1.5,1.4l-42.7,21.1l7.7,13.2L260.9,179.1z M151.3,260.3l-19,11.6l14.9,14.5
				L151.3,260.3z M151.7,258.7l12.1-45.8L129,238.1L151.7,258.7L151.7,258.7z M263.2,110.7l10.7-1l-10.7-3.8L263.2,110.7z
				 M234.3,38.1l-22.4,21.1l18,8L234.3,38.1z M297.2,140.5l-17.2-29.1c-0.1,0.1-0.3,0.2-0.5,0.2l-16.3,1.5l0.1,18.1l33.4,8.5
				L297.2,140.5z M290.4,140.6l-27.1-6.9l0,8L290.4,140.6z M232.3,66.9l28.5,12.2l1.6,2.7l-26.7-45.1l1,1.6L232.3,66.9z
				 M297.5,141.2c-0.4,0.5-0.7,1.1-1.1,1.6l-33.1,1.4l0.2,32.4l34.8-34L297.5,141.2z M263.1,103.4l15.2,5.5L263,82.9L263.1,103.4z"
				/>
			<polygon class="st10" points="149,118.9 126.8,105 133.6,93.5 149,93.5 164.5,93.5 171.3,105 			"/>
			<path class="st10" d="M232.7,64.4c-2.6-0.6-4.8,2-3.6,4.6c0.3,0.6,0.8,1.1,1.3,1.3c2.6,1.2,5.2-1,4.6-3.6
				C234.7,65.5,233.8,64.6,232.7,64.4z M235.4,33.6c-1.8,0-3.2,1.4-3.2,3.2c0,1.8,1.4,3.2,3.2,3.2s3.2-1.4,3.2-3.2
				C238.6,35,237.2,33.6,235.4,33.6z M261.1,83.7c1.8,0,3.2-1.4,3.2-3.2s-1.4-3.2-3.2-3.2s-3.2,1.4-3.2,3.2S259.4,83.7,261.1,83.7z
				 M296.8,138.8c-1.8,0-3.2,1.4-3.2,3.2c0,1.8,1.4,3.2,3.2,3.2c1.8,0,3.2-1.4,3.2-3.2C300,140.2,298.5,138.8,296.8,138.8z
				 M278.3,107.4c-1.8,0-3.2,1.4-3.2,3.2c0,1.8,1.4,3.2,3.2,3.2c1.8,0,3.2-1.4,3.2-3.2C281.5,108.8,280.1,107.4,278.3,107.4z
				 M261.2,174.1c-1.8,0-3.2,1.4-3.2,3.2c0,1.8,1.4,3.2,3.2,3.2c1.8,0,3.2-1.4,3.2-3.2C264.4,175.6,263,174.1,261.2,174.1z
				 M192.8,213.6c0-1.8-1.4-3.2-3.2-3.2c-1.8,0-3.2,1.4-3.2,3.2c0,1.8,1.4,3.2,3.2,3.2C191.4,216.8,192.8,215.4,192.8,213.6z
				 M221.5,88.8c0-1.8-1.4-3.2-3.2-3.2s-3.2,1.4-3.2,3.2c0,1.8,1.4,3.2,3.2,3.2S221.5,90.5,221.5,88.8z M204.1,114.3
				c-1.8,0-3.2,1.4-3.2,3.2c0,1.8,1.4,3.2,3.2,3.2s3.2-1.4,3.2-3.2C207.3,115.7,205.9,114.3,204.1,114.3z M196.8,127.3
				c-1.8,0-3.2,1.4-3.2,3.2s1.4,3.2,3.2,3.2c1.8,0,3.2-1.4,3.2-3.2S198.5,127.3,196.8,127.3z M182.8,143.2c-1.8,0-3.2,1.4-3.2,3.2
				s1.4,3.2,3.2,3.2s3.2-1.4,3.2-3.2S184.6,143.2,182.8,143.2z M169.1,180.7c-1.8,0-3.2,1.4-3.2,3.2c0,1.8,1.4,3.2,3.2,3.2
				c1.8,0,3.2-1.4,3.2-3.2C172.3,182.2,170.9,180.7,169.1,180.7z M165.4,208.2c-1.8,0-3.2,1.4-3.2,3.2c0,1.8,1.4,3.2,3.2,3.2
				c1.8,0,3.2-1.4,3.2-3.2C168.6,209.6,167.1,208.2,165.4,208.2z M152.8,256.1c-1.8,0-3.2,1.4-3.2,3.2c0,1.8,1.4,3.2,3.2,3.2
				s3.2-1.4,3.2-3.2C156,257.5,154.6,256.1,152.8,256.1z M192.8,242.2c-1.8,0-3.2,1.4-3.2,3.2s1.4,3.2,3.2,3.2
				c1.8,0,3.2-1.4,3.2-3.2S194.6,242.2,192.8,242.2z M149.7,284.5c-2.2-0.4-4.2,1.5-3.7,3.7c0.2,1.2,1.3,2.3,2.5,2.5
				c2.2,0.4,4.2-1.5,3.7-3.7C151.9,285.7,150.9,284.7,149.7,284.5z M223.2,213.6c-1.8,0-3.2,1.4-3.2,3.2s1.4,3.2,3.2,3.2
				c1.8,0,3.2-1.4,3.2-3.2S224.9,213.6,223.2,213.6z"/>
		</g>
	</g>
	<g>
		<polygon class="st7" points="298,142.5 235.5,36.9 148.5,7.8 62.3,36.9 0,142.5 149.1,288.4 		"/>
		<path class="st8" d="M95.1,72.1l25.6,13.1l-11.4,7.6L95.1,72.1z M203,72.1l-25.6,13.1l11.4,7.6L203,72.1z M90.7,6.2L61.3,0.6
			L45.1,10.8l-7.2,27.9l58.4-21.1L90.7,6.2z M253,10.8L236.7,0.6l-29.3,5.6l-5.6,11.4l58.4,21.1L253,10.8z M148.8,7.6L62.3,36.7
			l66.8,45.8h40.1l66.5-45.8L148.8,7.6z"/>
		<path class="st11" d="M172.7,88.8h-47.4l-17.6,30.4l41.3,30.3l41.3-30.3L172.7,88.8z M129,82.5L149,47.9l20.1,34.6H129z
			 M184.5,151.6l17.1,29.2l-14,0.8L184.5,151.6z M255.4,179.9l-49.7,3l9.8,16.7L255.4,179.9z M167.1,210.3l21.3,2l-2.9-28.2
			l-15.3,0.9L167.1,210.3z M203,183.1l-15.1,0.9l2.9,27.8l22.5-11.1L203,183.1z M204.3,180.6l52.7-3.2l-71.5-28.8L204.3,180.6z
			 M188.9,216.6l-32.8,40.5l35.8-12.1L188.9,216.6z M155.4,254.2l32.1-39.6l-21.1-2L155.4,254.2z M193,120.7l3.2,8.5l6.3-11.3
			L193,120.7z M238.2,94.4L256,83.1l-32.7,6L238.2,94.4z M260.6,83L241,95.5l19.8,7.1L260.6,83z M253.5,173.5l-37.6-27.4l-27.6,1.1
			L253.5,173.5z M214.5,202.7l-20.5,10.1l27.9,2.6L214.5,202.7z M261,144.2l-41.2,1.7l41.4,30.1L261,144.2z M260.8,111l0-5.9
			l-22.3-8L209,115.8L260.8,111z M260.8,113.3l-49.7,4.6l49.8,12.7L260.8,113.3z M261,141.9l0-8.7l-56.2-14.3l-6.4,11.5l18.4,13.4
			L261,141.9z M182.4,145.1C182.4,145.1,182.4,145.1,182.4,145.1C182.4,145.1,182.4,145.1,182.4,145.1L182.4,145.1
			C182.4,145.1,182.4,145.1,182.4,145.1c0.1,0,0.2,0,0.2-0.1h0c0,0,0,0,0,0h0c0,0,0,0,0,0c0,0,0,0,0.1,0l30.2-1.2L196,131.6
			c-0.2-0.2-0.4-0.4-0.5-0.7l-18.2,3.7l4.8,10.6C182.3,145.2,182.3,145.1,182.4,145.1z M169.1,182.7l16.2-1l-3.7-35l-30.1,14.3
			l16.8,22C168.5,182.9,168.8,182.7,169.1,182.7z M164.7,210.4l3.2-25.9l-45.2,15.2l41.7,11.2C164.4,210.7,164.5,210.6,164.7,210.4z
			 M235.6,96.1l-17.3-6.2c-0.4-0.1-0.7-0.5-0.8-0.8l-24.9,6.2l11,21.1L235.6,96.1z M191.1,214.9l3.1,29.5l-3.5,3.5l-36.9,12.5
			l-4.6,28.1l72.2-70.7L191.1,214.9z M218.5,87.6l39.2-7.2l-27.2-11.7c-0.4-0.2-0.7-0.5-0.7-0.9l-20.9,2.8l9.2,17.2
			C218.3,87.7,218.4,87.6,218.5,87.6z M260.9,179.1l-1.5,1.4l-42.7,21.1l7.7,13.2L260.9,179.1z M151.3,260.3l-19,11.6l14.9,14.5
			L151.3,260.3z M151.7,258.7l12.1-45.8L129,238.1L151.7,258.7L151.7,258.7z M263.2,110.7l10.7-1l-10.7-3.8L263.2,110.7z
			 M234.3,38.1l-22.4,21.1l18,8L234.3,38.1z M297.2,140.5l-17.2-29.1c-0.1,0.1-0.3,0.2-0.5,0.2l-16.3,1.5l0.1,18.1l33.4,8.5
			L297.2,140.5z M290.4,140.6l-27.1-6.9l0,8L290.4,140.6z M232.3,66.9l28.5,12.2l1.6,2.7l-26.7-45.1l1,1.6L232.3,66.9z M297.5,141.2
			c-0.4,0.5-0.7,1.1-1.1,1.6l-33.1,1.4l0.2,32.4l34.8-34L297.5,141.2z M263.1,103.4l15.2,5.5L263,82.9L263.1,103.4z"/>
		<polygon class="st7" points="149,118.9 126.8,105 133.6,93.5 149,93.5 164.5,93.5 171.3,105 		"/>
		<path class="st7" d="M232.7,64.4c-2.6-0.6-4.8,2-3.6,4.6c0.3,0.6,0.8,1.1,1.3,1.3c2.6,1.2,5.2-1,4.6-3.6
			C234.7,65.5,233.8,64.6,232.7,64.4z M235.4,33.6c-1.8,0-3.2,1.4-3.2,3.2c0,1.8,1.4,3.2,3.2,3.2s3.2-1.4,3.2-3.2
			C238.6,35,237.2,33.6,235.4,33.6z M261.1,83.7c1.8,0,3.2-1.4,3.2-3.2s-1.4-3.2-3.2-3.2s-3.2,1.4-3.2,3.2S259.4,83.7,261.1,83.7z
			 M296.8,138.8c-1.8,0-3.2,1.4-3.2,3.2c0,1.8,1.4,3.2,3.2,3.2c1.8,0,3.2-1.4,3.2-3.2C300,140.2,298.5,138.8,296.8,138.8z
			 M278.3,107.4c-1.8,0-3.2,1.4-3.2,3.2c0,1.8,1.4,3.2,3.2,3.2c1.8,0,3.2-1.4,3.2-3.2C281.5,108.8,280.1,107.4,278.3,107.4z
			 M261.2,174.1c-1.8,0-3.2,1.4-3.2,3.2c0,1.8,1.4,3.2,3.2,3.2c1.8,0,3.2-1.4,3.2-3.2C264.4,175.6,263,174.1,261.2,174.1z
			 M192.8,213.6c0-1.8-1.4-3.2-3.2-3.2c-1.8,0-3.2,1.4-3.2,3.2c0,1.8,1.4,3.2,3.2,3.2C191.4,216.8,192.8,215.4,192.8,213.6z
			 M221.5,88.8c0-1.8-1.4-3.2-3.2-3.2s-3.2,1.4-3.2,3.2c0,1.8,1.4,3.2,3.2,3.2S221.5,90.5,221.5,88.8z M204.1,114.3
			c-1.8,0-3.2,1.4-3.2,3.2c0,1.8,1.4,3.2,3.2,3.2s3.2-1.4,3.2-3.2C207.3,115.7,205.9,114.3,204.1,114.3z M196.8,127.3
			c-1.8,0-3.2,1.4-3.2,3.2s1.4,3.2,3.2,3.2c1.8,0,3.2-1.4,3.2-3.2S198.5,127.3,196.8,127.3z M182.8,143.2c-1.8,0-3.2,1.4-3.2,3.2
			s1.4,3.2,3.2,3.2s3.2-1.4,3.2-3.2S184.6,143.2,182.8,143.2z M169.1,180.7c-1.8,0-3.2,1.4-3.2,3.2c0,1.8,1.4,3.2,3.2,3.2
			c1.8,0,3.2-1.4,3.2-3.2C172.3,182.2,170.9,180.7,169.1,180.7z M165.4,208.2c-1.8,0-3.2,1.4-3.2,3.2c0,1.8,1.4,3.2,3.2,3.2
			c1.8,0,3.2-1.4,3.2-3.2C168.6,209.6,167.1,208.2,165.4,208.2z M152.8,256.1c-1.8,0-3.2,1.4-3.2,3.2c0,1.8,1.4,3.2,3.2,3.2
			s3.2-1.4,3.2-3.2C156,257.5,154.6,256.1,152.8,256.1z M192.8,242.2c-1.8,0-3.2,1.4-3.2,3.2s1.4,3.2,3.2,3.2c1.8,0,3.2-1.4,3.2-3.2
			S194.6,242.2,192.8,242.2z M149.7,284.5c-2.2-0.4-4.2,1.5-3.7,3.7c0.2,1.2,1.3,2.3,2.5,2.5c2.2,0.4,4.2-1.5,3.7-3.7
			C151.9,285.7,150.9,284.7,149.7,284.5z M223.2,213.6c-1.8,0-3.2,1.4-3.2,3.2s1.4,3.2,3.2,3.2c1.8,0,3.2-1.4,3.2-3.2
			S224.9,213.6,223.2,213.6z"/>
	</g>
</g>
<g id="white" class="st5">
	<g class="st9">
		<polygon class="st12" points="298,142.5 235.5,36.9 148.5,7.8 62.3,36.9 0,142.5 149.1,288.4 		"/>
		<path class="st6" d="M95.1,72.1l25.6,13.1l-11.4,7.6L95.1,72.1z M203,72.1l-25.6,13.1l11.4,7.6L203,72.1z M90.7,6.2L61.3,0.6
			L45.1,10.8l-7.2,27.9l58.4-21.1L90.7,6.2z M253,10.8L236.7,0.6l-29.3,5.6l-5.6,11.4l58.4,21.1L253,10.8z M148.8,7.6L62.3,36.7
			l66.8,45.8h40.1l66.5-45.8L148.8,7.6z"/>
		<path class="st10" d="M172.7,88.8h-47.4l-17.6,30.4l41.3,30.3l41.3-30.3L172.7,88.8z M129,82.5L149,47.9l20.1,34.6H129z
			 M184.5,151.6l17.1,29.2l-14,0.8L184.5,151.6z M255.4,179.9l-49.7,3l9.8,16.7L255.4,179.9z M167.1,210.3l21.3,2l-2.9-28.2
			l-15.3,0.9L167.1,210.3z M203,183.1l-15.1,0.9l2.9,27.8l22.5-11.1L203,183.1z M204.3,180.6l52.7-3.2l-71.5-28.8L204.3,180.6z
			 M188.9,216.6l-32.8,40.5l35.8-12.1L188.9,216.6z M155.4,254.2l32.1-39.6l-21.1-2L155.4,254.2z M193,120.7l3.2,8.5l6.3-11.3
			L193,120.7z M238.2,94.4L256,83.1l-32.7,6L238.2,94.4z M260.6,83L241,95.5l19.8,7.1L260.6,83z M253.5,173.5l-37.6-27.4l-27.6,1.1
			L253.5,173.5z M214.5,202.7l-20.5,10.1l27.9,2.6L214.5,202.7z M261,144.2l-41.2,1.7l41.4,30.1L261,144.2z M260.8,111l0-5.9
			l-22.3-8L209,115.8L260.8,111z M260.8,113.3l-49.7,4.6l49.8,12.7L260.8,113.3z M261,141.9l0-8.7l-56.2-14.3l-6.4,11.5l18.4,13.4
			L261,141.9z M182.4,145.1C182.4,145.1,182.4,145.1,182.4,145.1C182.4,145.1,182.4,145.1,182.4,145.1L182.4,145.1
			C182.4,145.1,182.4,145.1,182.4,145.1c0.1,0,0.2,0,0.2-0.1h0c0,0,0,0,0,0h0c0,0,0,0,0,0c0,0,0,0,0.1,0l30.2-1.2L196,131.6
			c-0.2-0.2-0.4-0.4-0.5-0.7l-18.2,3.7l4.8,10.6C182.3,145.2,182.3,145.1,182.4,145.1z M169.1,182.7l16.2-1l-3.7-35l-30.1,14.3
			l16.8,22C168.5,182.9,168.8,182.7,169.1,182.7z M164.7,210.4l3.2-25.9l-45.2,15.2l41.7,11.2C164.4,210.7,164.5,210.6,164.7,210.4z
			 M235.6,96.1l-17.3-6.2c-0.4-0.1-0.7-0.5-0.8-0.8l-24.9,6.2l11,21.1L235.6,96.1z M191.1,214.9l3.1,29.5l-3.5,3.5l-36.9,12.5
			l-4.6,28.1l72.2-70.7L191.1,214.9z M218.5,87.6l39.2-7.2l-27.2-11.7c-0.4-0.2-0.7-0.5-0.7-0.9l-20.9,2.8l9.2,17.2
			C218.3,87.7,218.4,87.6,218.5,87.6z M260.9,179.1l-1.5,1.4l-42.7,21.1l7.7,13.2L260.9,179.1z M151.3,260.3l-19,11.6l14.9,14.5
			L151.3,260.3z M151.7,258.7l12.1-45.8L129,238.1L151.7,258.7L151.7,258.7z M263.2,110.7l10.7-1l-10.7-3.8L263.2,110.7z
			 M234.3,38.1l-22.4,21.1l18,8L234.3,38.1z M297.2,140.5l-17.2-29.1c-0.1,0.1-0.3,0.2-0.5,0.2l-16.3,1.5l0.1,18.1l33.4,8.5
			L297.2,140.5z M290.4,140.6l-27.1-6.9l0,8L290.4,140.6z M232.3,66.9l28.5,12.2l1.6,2.7l-26.7-45.1l1,1.6L232.3,66.9z M297.5,141.2
			c-0.4,0.5-0.7,1.1-1.1,1.6l-33.1,1.4l0.2,32.4l34.8-34L297.5,141.2z M263.1,103.4l15.2,5.5L263,82.9L263.1,103.4z"/>
		<polygon class="st12" points="149,118.9 126.8,105 133.6,93.5 149,93.5 164.5,93.5 171.3,105 		"/>
		<path class="st6" d="M232.7,64.4c-2.6-0.6-4.8,2-3.6,4.6c0.3,0.6,0.8,1.1,1.3,1.3c2.6,1.2,5.2-1,4.6-3.6
			C234.7,65.5,233.8,64.6,232.7,64.4z M235.4,33.6c-1.8,0-3.2,1.4-3.2,3.2c0,1.8,1.4,3.2,3.2,3.2s3.2-1.4,3.2-3.2
			C238.6,35,237.2,33.6,235.4,33.6z M261.1,83.7c1.8,0,3.2-1.4,3.2-3.2s-1.4-3.2-3.2-3.2s-3.2,1.4-3.2,3.2S259.4,83.7,261.1,83.7z
			 M296.8,138.8c-1.8,0-3.2,1.4-3.2,3.2c0,1.8,1.4,3.2,3.2,3.2c1.8,0,3.2-1.4,3.2-3.2C300,140.2,298.5,138.8,296.8,138.8z
			 M278.3,107.4c-1.8,0-3.2,1.4-3.2,3.2c0,1.8,1.4,3.2,3.2,3.2c1.8,0,3.2-1.4,3.2-3.2C281.5,108.8,280.1,107.4,278.3,107.4z
			 M261.2,174.1c-1.8,0-3.2,1.4-3.2,3.2c0,1.8,1.4,3.2,3.2,3.2c1.8,0,3.2-1.4,3.2-3.2C264.4,175.6,263,174.1,261.2,174.1z
			 M192.8,213.6c0-1.8-1.4-3.2-3.2-3.2c-1.8,0-3.2,1.4-3.2,3.2c0,1.8,1.4,3.2,3.2,3.2C191.4,216.8,192.8,215.4,192.8,213.6z
			 M221.5,88.8c0-1.8-1.4-3.2-3.2-3.2s-3.2,1.4-3.2,3.2c0,1.8,1.4,3.2,3.2,3.2S221.5,90.5,221.5,88.8z M204.1,114.3
			c-1.8,0-3.2,1.4-3.2,3.2c0,1.8,1.4,3.2,3.2,3.2s3.2-1.4,3.2-3.2C207.3,115.7,205.9,114.3,204.1,114.3z M196.8,127.3
			c-1.8,0-3.2,1.4-3.2,3.2s1.4,3.2,3.2,3.2c1.8,0,3.2-1.4,3.2-3.2S198.5,127.3,196.8,127.3z M182.8,143.2c-1.8,0-3.2,1.4-3.2,3.2
			s1.4,3.2,3.2,3.2s3.2-1.4,3.2-3.2S184.6,143.2,182.8,143.2z M169.1,180.7c-1.8,0-3.2,1.4-3.2,3.2c0,1.8,1.4,3.2,3.2,3.2
			c1.8,0,3.2-1.4,3.2-3.2C172.3,182.2,170.9,180.7,169.1,180.7z M165.4,208.2c-1.8,0-3.2,1.4-3.2,3.2c0,1.8,1.4,3.2,3.2,3.2
			c1.8,0,3.2-1.4,3.2-3.2C168.6,209.6,167.1,208.2,165.4,208.2z M152.8,256.1c-1.8,0-3.2,1.4-3.2,3.2c0,1.8,1.4,3.2,3.2,3.2
			s3.2-1.4,3.2-3.2C156,257.5,154.6,256.1,152.8,256.1z M192.8,242.2c-1.8,0-3.2,1.4-3.2,3.2s1.4,3.2,3.2,3.2c1.8,0,3.2-1.4,3.2-3.2
			S194.6,242.2,192.8,242.2z M149.7,284.5c-2.2-0.4-4.2,1.5-3.7,3.7c0.2,1.2,1.3,2.3,2.5,2.5c2.2,0.4,4.2-1.5,3.7-3.7
			C151.9,285.7,150.9,284.7,149.7,284.5z M223.2,213.6c-1.8,0-3.2,1.4-3.2,3.2s1.4,3.2,3.2,3.2c1.8,0,3.2-1.4,3.2-3.2
			S224.9,213.6,223.2,213.6z"/>
	</g>
</g>
<g id="white_x5F_2" class="st5">
	<g class="st9">
		<polygon class="st2" points="298,142.5 235.5,36.9 148.5,7.8 62.3,36.9 0,142.5 149.1,288.4 		"/>
		<path class="st10" d="M95.1,72.1l25.6,13.1l-11.4,7.6L95.1,72.1z M203,72.1l-25.6,13.1l11.4,7.6L203,72.1z M90.7,6.2L61.3,0.6
			L45.1,10.8l-7.2,27.9l58.4-21.1L90.7,6.2z M253,10.8L236.7,0.6l-29.3,5.6l-5.6,11.4l58.4,21.1L253,10.8z M148.8,7.6L62.3,36.7
			l66.8,45.8h40.1l66.5-45.8L148.8,7.6z"/>
		<path class="st13" d="M172.7,88.8h-47.4l-17.6,30.4l41.3,30.3l41.3-30.3L172.7,88.8z M129,82.5L149,47.9l20.1,34.6H129z
			 M184.5,151.6l17.1,29.2l-14,0.8L184.5,151.6z M255.4,179.9l-49.7,3l9.8,16.7L255.4,179.9z M167.1,210.3l21.3,2l-2.9-28.2
			l-15.3,0.9L167.1,210.3z M203,183.1l-15.1,0.9l2.9,27.8l22.5-11.1L203,183.1z M204.3,180.6l52.7-3.2l-71.5-28.8L204.3,180.6z
			 M188.9,216.6l-32.8,40.5l35.8-12.1L188.9,216.6z M155.4,254.2l32.1-39.6l-21.1-2L155.4,254.2z M193,120.7l3.2,8.5l6.3-11.3
			L193,120.7z M238.2,94.4L256,83.1l-32.7,6L238.2,94.4z M260.6,83L241,95.5l19.8,7.1L260.6,83z M253.5,173.5l-37.6-27.4l-27.6,1.1
			L253.5,173.5z M214.5,202.7l-20.5,10.1l27.9,2.6L214.5,202.7z M261,144.2l-41.2,1.7l41.4,30.1L261,144.2z M260.8,111l0-5.9
			l-22.3-8L209,115.8L260.8,111z M260.8,113.3l-49.7,4.6l49.8,12.7L260.8,113.3z M261,141.9l0-8.7l-56.2-14.3l-6.4,11.5l18.4,13.4
			L261,141.9z M182.4,145.1C182.4,145.1,182.4,145.1,182.4,145.1C182.4,145.1,182.4,145.1,182.4,145.1L182.4,145.1
			C182.4,145.1,182.4,145.1,182.4,145.1c0.1,0,0.2,0,0.2-0.1h0c0,0,0,0,0,0h0c0,0,0,0,0,0c0,0,0,0,0.1,0l30.2-1.2L196,131.6
			c-0.2-0.2-0.4-0.4-0.5-0.7l-18.2,3.7l4.8,10.6C182.3,145.2,182.3,145.1,182.4,145.1z M169.1,182.7l16.2-1l-3.7-35l-30.1,14.3
			l16.8,22C168.5,182.9,168.8,182.7,169.1,182.7z M164.7,210.4l3.2-25.9l-45.2,15.2l41.7,11.2C164.4,210.7,164.5,210.6,164.7,210.4z
			 M235.6,96.1l-17.3-6.2c-0.4-0.1-0.7-0.5-0.8-0.8l-24.9,6.2l11,21.1L235.6,96.1z M191.1,214.9l3.1,29.5l-3.5,3.5l-36.9,12.5
			l-4.6,28.1l72.2-70.7L191.1,214.9z M218.5,87.6l39.2-7.2l-27.2-11.7c-0.4-0.2-0.7-0.5-0.7-0.9l-20.9,2.8l9.2,17.2
			C218.3,87.7,218.4,87.6,218.5,87.6z M260.9,179.1l-1.5,1.4l-42.7,21.1l7.7,13.2L260.9,179.1z M151.3,260.3l-19,11.6l14.9,14.5
			L151.3,260.3z M151.7,258.7l12.1-45.8L129,238.1L151.7,258.7L151.7,258.7z M263.2,110.7l10.7-1l-10.7-3.8L263.2,110.7z
			 M234.3,38.1l-22.4,21.1l18,8L234.3,38.1z M297.2,140.5l-17.2-29.1c-0.1,0.1-0.3,0.2-0.5,0.2l-16.3,1.5l0.1,18.1l33.4,8.5
			L297.2,140.5z M290.4,140.6l-27.1-6.9l0,8L290.4,140.6z M232.3,66.9l28.5,12.2l1.6,2.7l-26.7-45.1l1,1.6L232.3,66.9z M297.5,141.2
			c-0.4,0.5-0.7,1.1-1.1,1.6l-33.1,1.4l0.2,32.4l34.8-34L297.5,141.2z M263.1,103.4l15.2,5.5L263,82.9L263.1,103.4z"/>
		<polygon class="st10" points="149,118.9 126.8,105 133.6,93.5 149,93.5 164.5,93.5 171.3,105 		"/>
		<path class="st2" d="M232.7,64.4c-2.6-0.6-4.8,2-3.6,4.6c0.3,0.6,0.8,1.1,1.3,1.3c2.6,1.2,5.2-1,4.6-3.6
			C234.7,65.5,233.8,64.6,232.7,64.4z M235.4,33.6c-1.8,0-3.2,1.4-3.2,3.2c0,1.8,1.4,3.2,3.2,3.2s3.2-1.4,3.2-3.2
			C238.6,35,237.2,33.6,235.4,33.6z M261.1,83.7c1.8,0,3.2-1.4,3.2-3.2s-1.4-3.2-3.2-3.2s-3.2,1.4-3.2,3.2S259.4,83.7,261.1,83.7z
			 M296.8,138.8c-1.8,0-3.2,1.4-3.2,3.2c0,1.8,1.4,3.2,3.2,3.2c1.8,0,3.2-1.4,3.2-3.2C300,140.2,298.5,138.8,296.8,138.8z
			 M278.3,107.4c-1.8,0-3.2,1.4-3.2,3.2c0,1.8,1.4,3.2,3.2,3.2c1.8,0,3.2-1.4,3.2-3.2C281.5,108.8,280.1,107.4,278.3,107.4z
			 M261.2,174.1c-1.8,0-3.2,1.4-3.2,3.2c0,1.8,1.4,3.2,3.2,3.2c1.8,0,3.2-1.4,3.2-3.2C264.4,175.6,263,174.1,261.2,174.1z
			 M192.8,213.6c0-1.8-1.4-3.2-3.2-3.2c-1.8,0-3.2,1.4-3.2,3.2c0,1.8,1.4,3.2,3.2,3.2C191.4,216.8,192.8,215.4,192.8,213.6z
			 M221.5,88.8c0-1.8-1.4-3.2-3.2-3.2s-3.2,1.4-3.2,3.2c0,1.8,1.4,3.2,3.2,3.2S221.5,90.5,221.5,88.8z M204.1,114.3
			c-1.8,0-3.2,1.4-3.2,3.2c0,1.8,1.4,3.2,3.2,3.2s3.2-1.4,3.2-3.2C207.3,115.7,205.9,114.3,204.1,114.3z M196.8,127.3
			c-1.8,0-3.2,1.4-3.2,3.2s1.4,3.2,3.2,3.2c1.8,0,3.2-1.4,3.2-3.2S198.5,127.3,196.8,127.3z M182.8,143.2c-1.8,0-3.2,1.4-3.2,3.2
			s1.4,3.2,3.2,3.2s3.2-1.4,3.2-3.2S184.6,143.2,182.8,143.2z M169.1,180.7c-1.8,0-3.2,1.4-3.2,3.2c0,1.8,1.4,3.2,3.2,3.2
			c1.8,0,3.2-1.4,3.2-3.2C172.3,182.2,170.9,180.7,169.1,180.7z M165.4,208.2c-1.8,0-3.2,1.4-3.2,3.2c0,1.8,1.4,3.2,3.2,3.2
			c1.8,0,3.2-1.4,3.2-3.2C168.6,209.6,167.1,208.2,165.4,208.2z M152.8,256.1c-1.8,0-3.2,1.4-3.2,3.2c0,1.8,1.4,3.2,3.2,3.2
			s3.2-1.4,3.2-3.2C156,257.5,154.6,256.1,152.8,256.1z M192.8,242.2c-1.8,0-3.2,1.4-3.2,3.2s1.4,3.2,3.2,3.2c1.8,0,3.2-1.4,3.2-3.2
			S194.6,242.2,192.8,242.2z M149.7,284.5c-2.2-0.4-4.2,1.5-3.7,3.7c0.2,1.2,1.3,2.3,2.5,2.5c2.2,0.4,4.2-1.5,3.7-3.7
			C151.9,285.7,150.9,284.7,149.7,284.5z M223.2,213.6c-1.8,0-3.2,1.4-3.2,3.2s1.4,3.2,3.2,3.2c1.8,0,3.2-1.4,3.2-3.2
			S224.9,213.6,223.2,213.6z"/>
	</g>
</g>
<g id="color_simlple">
	<g class="st5">
		<polygon class="st14" points="248,141.5 206.5,71.4 148.7,52.1 91.4,71.4 50,141.5 149.4,238 		"/>
		<path class="st15" d="M148.8,52.1l57.7,19.3l-44.2,30.4h-26.6L91.5,71.4L148.8,52.1z M122.6,108.6l7.6-5.1l-17-8.7L122.6,108.6z
			 M175.4,108.6l9.4-13.8l-17,8.7L175.4,108.6z M110.3,51.1l-19.4-3.7l-10.8,6.8l-4.8,18.5l38.7-14L110.3,51.1z M217.9,54.2
			l-10.8-6.8l-19.4,3.7l-3.7,7.6l38.7,14L217.9,54.2z"/>
		<path class="st16" d="M231,112.9l17,28.7l-1.3-2.2l-57-15.3l41.1-11.2C231,112.9,231,112.9,231,112.9z M214,84.1l-10.7,7
			l25.7,18.2L214,84.1z M247.5,142.1l-34.2,11l10.8,11.9l23.9-23.4L247.5,142.1z M228.1,111.4l-28.7-20l0,0l-12.2,31.1L228.1,111.4z
			 M244,140.9l-55.4-14.8l23,25.3L244,140.9z M172.6,145.6l5.9-11.5l-10.6,2.2L172.6,145.6z M178.1,127.1l1.6,4.4l2.9-5.7
			L178.1,127.1z M189.3,196.6l-26.5-26l-9.4,46.3L189.3,196.6z M161.2,167.7l11.2-21.9l-21.8,8L161.2,167.7z M185.2,125.6
			l-20.9,40.9l45-14.5L185.2,125.6z M211,153.8l-41.2,13.3l51.8-1.5L211,153.8z M176.4,126.1l-11.7-20.2h-31.4l-11.7,20.2l27.4,20.1
			L176.4,126.1z M157.1,187.5l-21.5,17.4l15.1,13.8L157.1,187.5z M160.8,169.6l-29.3,9.8l25.7,7.8L160.8,169.6z M164.7,169.4
			l27.1,26.6c0.1,0.1,0.1,0.2,0.2,0.3l-3,3l-36.2,20.5l-1.3,16.2l-2.1,2.1l0,0l71.8-70.3L164.7,169.4z M148.9,237.5l1.8-18
			l-12.6,7.7l11.1,10.7L148.9,237.5z M204,73.7l-13.3,12.5l7,3.2C200.3,82.9,202.6,77,204,73.7z M206.5,71.5l0.4,0.7l-7.2,18.3l0,0
			l13.1-8.3l0.6,1L206.5,71.5L206.5,71.5C206.5,71.4,206.5,71.5,206.5,71.5z M149,78.8l-13.3,23h26.6L149,78.8z M196.6,92.1
			l-7.8,1.7l3,10.3C193.3,100.2,195,96.1,196.6,92.1z M190.6,106.9l-12.7,3.4l6.4,12.2C185.2,120.2,187.7,114.1,190.6,106.9z"/>
		<polygon class="st14" points="163.7,116.7 159.3,109.1 149,109.1 138.7,109.1 134.3,116.7 149,125.9 		"/>
		<path class="st15" d="M209.2,72.7c0,1.8-1.5,3.3-3.3,3.3c-1.8,0-3.3-1.5-3.3-3.3s1.5-3.3,3.3-3.3
			C207.7,69.4,209.2,70.9,209.2,72.7z M199.7,88.3c-1.8,0-3.3,1.5-3.3,3.3s1.5,3.3,3.3,3.3c1.8,0,3.3-1.5,3.3-3.3
			S201.5,88.3,199.7,88.3z M185.6,121.1c-1.8,0-3.3,1.5-3.3,3.3s1.5,3.3,3.3,3.3c1.8,0,3.3-1.5,3.3-3.3S187.4,121.1,185.6,121.1z
			 M230.2,108.4c-1.8,0-3.3,1.5-3.3,3.3s1.5,3.3,3.3,3.3c1.8,0,3.3-1.5,3.3-3.3S232,108.4,230.2,108.4z M246.7,138.1
			c-1.8,0-3.3,1.5-3.3,3.3c0,1.8,1.5,3.3,3.3,3.3c1.8,0,3.3-1.5,3.3-3.3C250,139.6,248.5,138.1,246.7,138.1z M223.1,163.3
			c-1.8,0-3.3,1.5-3.3,3.3c0,1.8,1.5,3.3,3.3,3.3c1.8,0,3.3-1.5,3.3-3.3C226.3,164.7,224.9,163.3,223.1,163.3z M189.7,194
			c-1.8,0-3.3,1.5-3.3,3.3c0,1.8,1.5,3.3,3.3,3.3c1.8,0,3.3-1.5,3.3-3.3C193,195.5,191.6,194,189.7,194z M151.4,216.2
			c-1.8,0-3.3,1.5-3.3,3.3c0,1.8,1.5,3.3,3.3,3.3s3.3-1.5,3.3-3.3C154.6,217.7,153.2,216.2,151.4,216.2z M149.6,233.3
			c-1.8,0-3.3,1.5-3.3,3.3c0,1.8,1.5,3.3,3.3,3.3c1.8,0,3.3-1.5,3.3-3.3C152.8,234.7,151.4,233.3,149.6,233.3z M161.9,165.7
			c-1.8,0-3.3,1.5-3.3,3.3c0,1.8,1.5,3.3,3.3,3.3c1.8,0,3.3-1.5,3.3-3.3C165.1,167.2,163.7,165.7,161.9,165.7z"/>
	</g>
</g>
</svg>
